<?xml version="1.0" encoding="UTF-8" standalone="no"?>
<!-- Created with Inkscape (http://www.inkscape.org/) -->

<svg
   width="500mm"
   height="500mm"
   viewBox="0 0 500.00001 500"
   version="1.1"
   id="svg1965"
   inkscape:version="1.4 (e7c3feb100, 2024-10-09)"
   sodipodi:docname="icon.svg"
   xml:space="preserve"
   xmlns:inkscape="http://www.inkscape.org/namespaces/inkscape"
   xmlns:sodipodi="http://sodipodi.sourceforge.net/DTD/sodipodi-0.dtd"
   xmlns="http://www.w3.org/2000/svg"
   xmlns:svg="http://www.w3.org/2000/svg"
   xmlns:rdf="http://www.w3.org/1999/02/22-rdf-syntax-ns#"
   xmlns:cc="http://creativecommons.org/ns#"><sodipodi:namedview
     id="namedview1967"
     pagecolor="#ffffff"
     bordercolor="#666666"
     borderopacity="1.0"
     inkscape:pageshadow="2"
     inkscape:pageopacity="0"
     inkscape:pagecheckerboard="true"
     inkscape:document-units="mm"
     showgrid="false"
     inkscape:zoom="0.26205012"
     inkscape:cx="1148.6352"
     inkscape:cy="1171.5316"
     inkscape:window-width="1920"
     inkscape:window-height="1008"
     inkscape:window-x="0"
     inkscape:window-y="0"
     inkscape:window-maximized="1"
     inkscape:current-layer="layer3"
     units="mm"
     width="500mm"
     inkscape:showpageshadow="0"
     inkscape:deskcolor="#505050" /><defs
     id="defs1962"><clipPath
       clipPathUnits="userSpaceOnUse"
       id="clipPath2043"><circle
         style="fill:#645ed8;fill-opacity:1;stroke-width:0.287235"
         id="circle2045"
         cx="71.696136"
         cy="346.20755"
         r="166.66667"
         transform="rotate(-33.300001)" /></clipPath><clipPath
       clipPathUnits="userSpaceOnUse"
       id="clipPath2047"><circle
         style="fill:#645ed8;fill-opacity:1;stroke-width:0.287235"
         id="circle2049"
         cx="71.696136"
         cy="346.20755"
         r="166.66667"
         transform="rotate(-33.300001)" /></clipPath></defs><g
     id="layer4"
     inkscape:label="Background"
     style="display:inline"
     inkscape:groupmode="layer"
     sodipodi:insensitive="true"><g
       id="g2017"
       transform="matrix(1.253711,0.82353423,-0.82353423,1.253711,142.4558,-269.31132)"
       inkscape:label="Background-Rotation-Group"
       inkscape:groupmode="layer"
       style="display:inline"
       sodipodi:insensitive="true"><rect
         style="fill:#5d58b9;stroke-width:0.583302"
         id="rect1836"
         width="500"
         height="500"
         x="0"
         y="-1.7763568e-15"
         clip-path="url(#clipPath2047)"
         inkscape:label="Background-Right"
         sodipodi:insensitive="true" /><rect
         style="fill:#645ed8;fill-opacity:1;stroke-width:0.387614"
         id="rect1810"
         width="250"
         height="500"
         x="0"
         y="0"
         clip-path="url(#clipPath2043)"
         inkscape:label="Background-Left"
         sodipodi:insensitive="true" /></g></g><g
     inkscape:groupmode="layer"
     id="layer3"
     inkscape:label="Icon"><g
       style="fill:#e8eaed"
       id="g1"
       transform="matrix(0.41538945,0,0,0.41538945,88.649646,450.02904)"><path
         d="m 572.3795,-81.545785 q -50,0 -85,-34.999995 -35,-35 -35,-85 0,-6 3,-28 l -281,-164 q -16,15 -37,23.5 -21,8.5 -44.999979,8.5 -49.999862,0 -84.9999696,-35 -35.0000484,-35 -35.0000484,-85 0,-50 35.0000484,-85 35.0001076,-35 84.9999696,-35 23.999979,0 44.999979,8.5 21,8.5 37,23.5 l 281,-164 q -2,-7 -2.5,-13.5 -0.5,-6.5 -0.5,-14.5 0,-50 35,-85 35,-35 85,-35 50,0 85,35 35,35 35,85 0,50 -35,85 -35,35 -85,35 -24,0 -45,-8.5 -21,-8.5 -37,-23.5 l -281,164 q 2,7 2.5,13.5 0.5,6.5 0.5,14.5 0,8 -0.5,14.5 -0.5,6.5 -2.5,13.5 l 281,164 q 16,-15 37,-23.5 21,-8.5 45,-8.5 50,0 85,35 35,35 35,85 0,50 -35,85 -35,34.999995 -85,34.999995 z m 0,-79.999995 q 17,0 28.5,-11.5 11.5,-11.5 11.5,-28.5 0,-17 -11.5,-28.5 -11.5,-11.5 -28.5,-11.5 -17,0 -28.5,11.5 -11.5,11.5 -11.5,28.5 0,17 11.5,28.5 11.5,11.5 28.5,11.5 z m -479.999979,-280 q 16.999979,0 28.499979,-11.5 11.5,-11.5 11.5,-28.5 0,-17 -11.5,-28.5 -11.5,-11.5 -28.499979,-11.5 -16.999952,0 -28.499922,11.5 -11.499967,11.5 -11.499967,28.5 0,17 11.499967,28.5 11.49997,11.5 28.499922,11.5 z m 479.999979,-280 q 17,0 28.5,-11.5 11.5,-11.5 11.5,-28.5 0,-17 -11.5,-28.5 -11.5,-11.5 -28.5,-11.5 -17,0 -28.5,11.5 -11.5,11.5 -11.5,28.5 0,17 11.5,28.5 11.5,11.5 28.5,11.5 z m 0,520 z m -479.999979,-280 z m 479.999979,-280 z"
         id="path1"
         style="display:inline" /></g></g><metadata
     id="metadata1969"><rdf:RDF><cc:Work
         rdf:about="" /></rdf:RDF></metadata></svg>
