<?xml version="1.0" encoding="UTF-8"?>
<svg width="500mm" height="500mm" version="1.1" viewBox="0 0 500 500" xml:space="preserve" xmlns="http://www.w3.org/2000/svg"><defs><clipPath id="b"><circle transform="rotate(-33.3)" cx="71.696" cy="346.21" r="166.67" fill="#645ed8" stroke-width=".28724"/></clipPath><clipPath id="a"><circle transform="rotate(-33.3)" cx="71.696" cy="346.21" r="166.67" fill="#645ed8" stroke-width=".28724"/></clipPath></defs><g><g transform="matrix(1.2537 .82353 -.82353 1.2537 142.46 -269.31)"><rect y="-1.7764e-15" width="500" height="500" clip-path="url(#a)" fill="#5d58b9" stroke-width=".5833"/><rect width="250" height="500" clip-path="url(#b)" fill="#645ed8" stroke-width=".38761"/></g></g><g transform="matrix(.41539 0 0 .41539 88.65 450.03)" fill="#e8eaed"><path d="m572.38-81.546q-50 0-85-35-35-35-35-85 0-6 3-28l-281-164q-16 15-37 23.5t-45 8.5q-50 0-85-35-35-35-35-85t35-85q35-35 85-35 24 0 45 8.5t37 23.5l281-164q-2-7-2.5-13.5t-0.5-14.5q0-50 35-85t85-35 85 35 35 85-35 85-85 35q-24 0-45-8.5t-37-23.5l-281 164q2 7 2.5 13.5t0.5 14.5-0.5 14.5-2.5 13.5l281 164q16-15 37-23.5t45-8.5q50 0 85 35t35 85-35 85q-35 35-85 35zm0-80q17 0 28.5-11.5t11.5-28.5-11.5-28.5-28.5-11.5-28.5 11.5-11.5 28.5 11.5 28.5 28.5 11.5zm-480-280q17 0 28.5-11.5t11.5-28.5-11.5-28.5-28.5-11.5q-17 0-28.5 11.5-11.5 11.5-11.5 28.5t11.5 28.5q11.5 11.5 28.5 11.5zm480-280q17 0 28.5-11.5t11.5-28.5-11.5-28.5-28.5-11.5-28.5 11.5-11.5 28.5 11.5 28.5 28.5 11.5z"/></g></svg>
